# xmcd
#
# Track frame offsets:
#	150
#	17382
#	30867
#	43989
#	59085
#	73716
#	94110
#	107929
#	120390
#	133424
#	152699
#	167037
#	186877
#	203596
#
# Disc length: 2897 seconds
#
# Revision: 0
# Processed by: cddbd v1.5.2PL0 Copyright (c) Steve Scherf et al.
# Submitted via: EasyCDDAExtractor 16.0.1.1
#
DISCID=bf0b4f0e
DTITLE=Paul Alan Coons - The Ride Of Life
DYEAR=2007
DGENRE=Country
TTITLE0=Spår 1Hey Sweet Mama
TTITLE1=I'm Gettin' Even With You
TTITLE2=Will Ya
TTITLE3=Reflections
TTITLE4=Mickey And Me
TTITLE5=The Ride Of Life
TTITLE6=This Faded Flower
TTITLE7=You Can't Live With-Um
TTITLE8=I Feel A Cheatin'
TTITLE9=When I Had It All
TTITLE10=If This Old Table Could Talk
TTITLE11=Thank You Daddy
TTITLE12=Tell Me Again
TTITLE13=Time Sure Flies
EXTD=
EXTT0=
EXTT1=
EXTT2=
EXTT3=
EXTT4=
EXTT5=
EXTT6=
EXTT7=
EXTT8=
EXTT9=
EXTT10=
EXTT11=
EXTT12=
EXTT13=
PLAYORDER=
